<mxfile host="app.diagrams.net" modified="2021-09-10T06:23:09.862Z" agent="5.0 (Macintosh; Intel Mac OS X 10_14_6) AppleWebKit/537.36 (KHTML, like Gecko) Chrome/92.0.4515.159 Safari/537.36" etag="daJoLs3K75ZelJ3hU6DF" version="15.0.6" type="github" pages="4">
  <diagram id="kgpKYQtTHZ0yAKxKKP6v" name="presto CLI方式提交查询源码分析时序图">
    <mxGraphModel dx="1297" dy="742" grid="1" gridSize="10" guides="1" tooltips="1" connect="1" arrows="0" fold="1" page="1" pageScale="1" pageWidth="850" pageHeight="1100" math="0" shadow="0">
      <root>
        <mxCell id="0" />
        <mxCell id="1" parent="0" />
        <mxCell id="3nuBFxr9cyL0pnOWT2aG-1" value="Presto" style="shape=umlLifeline;perimeter=lifelinePerimeter;container=1;collapsible=0;recursiveResize=0;rounded=0;shadow=0;strokeWidth=1;" parent="1" vertex="1">
          <mxGeometry x="120" y="80" width="100" height="480" as="geometry" />
        </mxCell>
        <mxCell id="3nuBFxr9cyL0pnOWT2aG-2" value="" style="points=[];perimeter=orthogonalPerimeter;rounded=0;shadow=0;strokeWidth=1;" parent="3nuBFxr9cyL0pnOWT2aG-1" vertex="1">
          <mxGeometry x="45" y="70" width="10" height="400" as="geometry" />
        </mxCell>
        <mxCell id="3nuBFxr9cyL0pnOWT2aG-3" value="启动CLI，提交查询" style="verticalAlign=bottom;startArrow=oval;endArrow=block;startSize=8;shadow=0;strokeWidth=1;" parent="3nuBFxr9cyL0pnOWT2aG-1" target="3nuBFxr9cyL0pnOWT2aG-2" edge="1">
          <mxGeometry relative="1" as="geometry">
            <mxPoint x="-70" y="70" as="sourcePoint" />
          </mxGeometry>
        </mxCell>
        <mxCell id="3nuBFxr9cyL0pnOWT2aG-5" value="Console" style="shape=umlLifeline;perimeter=lifelinePerimeter;container=1;collapsible=0;recursiveResize=0;rounded=0;shadow=0;strokeWidth=1;" parent="1" vertex="1">
          <mxGeometry x="250" y="80" width="100" height="470" as="geometry" />
        </mxCell>
        <mxCell id="3nuBFxr9cyL0pnOWT2aG-6" value="" style="points=[];perimeter=orthogonalPerimeter;rounded=0;shadow=0;strokeWidth=1;" parent="3nuBFxr9cyL0pnOWT2aG-5" vertex="1">
          <mxGeometry x="45" y="80" width="10" height="370" as="geometry" />
        </mxCell>
        <mxCell id="6iHN7J01sDxfZzVg6Nta-52" value="preprocessQuery" style="html=1;verticalAlign=bottom;endArrow=block;entryX=-0.3;entryY=0.407;entryDx=0;entryDy=0;entryPerimeter=0;" parent="3nuBFxr9cyL0pnOWT2aG-5" target="6iHN7J01sDxfZzVg6Nta-42" edge="1">
          <mxGeometry width="80" relative="1" as="geometry">
            <mxPoint x="60" y="190" as="sourcePoint" />
            <mxPoint x="140" y="190" as="targetPoint" />
          </mxGeometry>
        </mxCell>
        <mxCell id="3nuBFxr9cyL0pnOWT2aG-8" value="执行run方法" style="verticalAlign=bottom;endArrow=block;shadow=0;strokeWidth=1;" parent="1" source="3nuBFxr9cyL0pnOWT2aG-2" edge="1">
          <mxGeometry relative="1" as="geometry">
            <mxPoint x="275" y="160" as="sourcePoint" />
            <mxPoint x="300" y="160" as="targetPoint" />
          </mxGeometry>
        </mxCell>
        <mxCell id="6iHN7J01sDxfZzVg6Nta-33" value="QueryPreprocessor" style="shape=umlLifeline;perimeter=lifelinePerimeter;whiteSpace=wrap;html=1;container=1;collapsible=0;recursiveResize=0;outlineConnect=0;" parent="1" vertex="1">
          <mxGeometry x="380" y="80" width="110" height="330" as="geometry" />
        </mxCell>
        <mxCell id="6iHN7J01sDxfZzVg6Nta-42" value="" style="html=1;points=[];perimeter=orthogonalPerimeter;" parent="6iHN7J01sDxfZzVg6Nta-33" vertex="1">
          <mxGeometry x="50" y="150" width="10" height="100" as="geometry" />
        </mxCell>
        <mxCell id="6iHN7J01sDxfZzVg6Nta-49" value="执行executeCommand&amp;nbsp;&lt;br&gt;或者runConsole" style="edgeStyle=orthogonalEdgeStyle;html=1;align=left;spacingLeft=2;endArrow=block;rounded=0;" parent="1" edge="1">
          <mxGeometry x="-0.8667" y="20" relative="1" as="geometry">
            <mxPoint x="310" y="170" as="sourcePoint" />
            <Array as="points">
              <mxPoint x="375" y="169.9999999999999" />
              <mxPoint x="375" y="189.9999999999999" />
            </Array>
            <mxPoint x="310" y="190" as="targetPoint" />
            <mxPoint as="offset" />
          </mxGeometry>
        </mxCell>
        <mxCell id="6iHN7J01sDxfZzVg6Nta-51" value="process" style="edgeStyle=orthogonalEdgeStyle;html=1;align=left;spacingLeft=2;endArrow=block;rounded=0;entryX=1;entryY=0;" parent="1" edge="1">
          <mxGeometry x="-0.7143" y="10" relative="1" as="geometry">
            <mxPoint x="310" y="220" as="sourcePoint" />
            <Array as="points">
              <mxPoint x="370" y="220" />
              <mxPoint x="370" y="240" />
            </Array>
            <mxPoint x="310" y="240" as="targetPoint" />
            <mxPoint as="offset" />
          </mxGeometry>
        </mxCell>
        <mxCell id="6iHN7J01sDxfZzVg6Nta-54" value="return finalSql" style="html=1;verticalAlign=bottom;endArrow=open;dashed=1;endSize=8;exitX=-0.383;exitY=0.682;exitDx=0;exitDy=0;exitPerimeter=0;" parent="1" source="6iHN7J01sDxfZzVg6Nta-42" edge="1">
          <mxGeometry relative="1" as="geometry">
            <mxPoint x="420" y="300" as="sourcePoint" />
            <mxPoint x="310" y="298" as="targetPoint" />
          </mxGeometry>
        </mxCell>
        <mxCell id="6iHN7J01sDxfZzVg6Nta-55" value="QueryRunner" style="shape=umlLifeline;perimeter=lifelinePerimeter;whiteSpace=wrap;html=1;container=1;collapsible=0;recursiveResize=0;outlineConnect=0;" parent="1" vertex="1">
          <mxGeometry x="500" y="80" width="100" height="370" as="geometry" />
        </mxCell>
        <mxCell id="6iHN7J01sDxfZzVg6Nta-56" value="" style="html=1;points=[];perimeter=orthogonalPerimeter;" parent="6iHN7J01sDxfZzVg6Nta-55" vertex="1">
          <mxGeometry x="45" y="260" width="10" height="80" as="geometry" />
        </mxCell>
        <mxCell id="6iHN7J01sDxfZzVg6Nta-63" value="newStatementClient" style="html=1;verticalAlign=bottom;endArrow=block;" parent="6iHN7J01sDxfZzVg6Nta-55" edge="1">
          <mxGeometry x="0.1298" y="10" width="80" relative="1" as="geometry">
            <mxPoint x="55" y="299.58" as="sourcePoint" />
            <mxPoint x="176" y="300" as="targetPoint" />
            <Array as="points" />
            <mxPoint as="offset" />
          </mxGeometry>
        </mxCell>
        <mxCell id="6iHN7J01sDxfZzVg6Nta-57" value="startQuery" style="html=1;verticalAlign=bottom;endArrow=block;" parent="1" edge="1">
          <mxGeometry width="80" relative="1" as="geometry">
            <mxPoint x="310" y="380" as="sourcePoint" />
            <mxPoint x="540" y="380" as="targetPoint" />
          </mxGeometry>
        </mxCell>
        <mxCell id="6iHN7J01sDxfZzVg6Nta-61" value="StatementClientV1" style="shape=umlLifeline;perimeter=lifelinePerimeter;whiteSpace=wrap;html=1;container=1;collapsible=0;recursiveResize=0;outlineConnect=0;" parent="1" vertex="1">
          <mxGeometry x="630" y="80" width="110" height="440" as="geometry" />
        </mxCell>
        <mxCell id="6iHN7J01sDxfZzVg6Nta-62" value="" style="html=1;points=[];perimeter=orthogonalPerimeter;" parent="6iHN7J01sDxfZzVg6Nta-61" vertex="1">
          <mxGeometry x="50" y="270" width="10" height="150" as="geometry" />
        </mxCell>
        <mxCell id="6iHN7J01sDxfZzVg6Nta-65" value="&lt;span style=&quot;text-align: center&quot;&gt;执行execute，发送请求&lt;/span&gt;&lt;br style=&quot;text-align: center&quot;&gt;&lt;span style=&quot;text-align: center&quot;&gt;到presto coordinator&lt;/span&gt;" style="edgeStyle=orthogonalEdgeStyle;html=1;align=left;spacingLeft=2;endArrow=block;rounded=0;entryX=1;entryY=0;" parent="1" edge="1">
          <mxGeometry x="-0.7143" y="10" relative="1" as="geometry">
            <mxPoint x="690" y="430" as="sourcePoint" />
            <Array as="points">
              <mxPoint x="750" y="430" />
              <mxPoint x="750" y="450" />
            </Array>
            <mxPoint x="690" y="450.0000000000001" as="targetPoint" />
            <mxPoint as="offset" />
          </mxGeometry>
        </mxCell>
        <mxCell id="6iHN7J01sDxfZzVg6Nta-66" value="processResponse" style="edgeStyle=orthogonalEdgeStyle;html=1;align=left;spacingLeft=2;endArrow=block;rounded=0;entryX=1;entryY=0;" parent="1" edge="1">
          <mxGeometry x="-0.7143" y="10" relative="1" as="geometry">
            <mxPoint x="690" y="470" as="sourcePoint" />
            <Array as="points">
              <mxPoint x="750" y="470" />
              <mxPoint x="750" y="490" />
            </Array>
            <mxPoint x="690" y="490.0000000000001" as="targetPoint" />
            <mxPoint as="offset" />
          </mxGeometry>
        </mxCell>
        <mxCell id="6iHN7J01sDxfZzVg6Nta-67" value="renderOutput" style="edgeStyle=orthogonalEdgeStyle;html=1;align=left;spacingLeft=2;endArrow=block;rounded=0;entryX=1;entryY=0;" parent="1" edge="1">
          <mxGeometry x="-0.7143" y="10" relative="1" as="geometry">
            <mxPoint x="310" y="490" as="sourcePoint" />
            <Array as="points">
              <mxPoint x="370" y="490" />
              <mxPoint x="370" y="510" />
            </Array>
            <mxPoint x="310" y="510.0000000000001" as="targetPoint" />
            <mxPoint as="offset" />
          </mxGeometry>
        </mxCell>
        <mxCell id="6iHN7J01sDxfZzVg6Nta-69" value="exit" style="edgeStyle=orthogonalEdgeStyle;html=1;align=left;spacingLeft=2;endArrow=block;rounded=0;entryX=1;entryY=0;" parent="1" edge="1">
          <mxGeometry x="-0.7143" y="10" relative="1" as="geometry">
            <mxPoint x="180" y="520" as="sourcePoint" />
            <Array as="points">
              <mxPoint x="240" y="520" />
              <mxPoint x="240" y="540" />
            </Array>
            <mxPoint x="180" y="540.0000000000001" as="targetPoint" />
            <mxPoint as="offset" />
          </mxGeometry>
        </mxCell>
        <mxCell id="6iHN7J01sDxfZzVg6Nta-70" value="buildQueryRequest" style="edgeStyle=orthogonalEdgeStyle;html=1;align=left;spacingLeft=2;endArrow=block;rounded=0;entryX=1;entryY=0;" parent="1" edge="1">
          <mxGeometry x="-0.7143" y="10" relative="1" as="geometry">
            <mxPoint x="690" y="380" as="sourcePoint" />
            <Array as="points">
              <mxPoint x="750" y="380" />
              <mxPoint x="750" y="400" />
            </Array>
            <mxPoint x="690" y="400.0000000000001" as="targetPoint" />
            <mxPoint as="offset" />
          </mxGeometry>
        </mxCell>
      </root>
    </mxGraphModel>
  </diagram>
  <diagram id="lVHiPfSf3QUA1xPxIP8e" name="Presto提交查询JDBC方式源码解析时序图">
    <mxGraphModel dx="1297" dy="760" grid="1" gridSize="10" guides="1" tooltips="1" connect="1" arrows="1" fold="1" page="1" pageScale="1" pageWidth="827" pageHeight="1169" math="0" shadow="0">
      <root>
        <mxCell id="Ev4vLjDtqOw1OBdRFHEw-0" />
        <mxCell id="Ev4vLjDtqOw1OBdRFHEw-1" parent="Ev4vLjDtqOw1OBdRFHEw-0" />
        <mxCell id="ibFIzqcE3AoIAyEGFBbN-0" value="PrestoDriver" style="shape=umlLifeline;perimeter=lifelinePerimeter;container=1;collapsible=0;recursiveResize=0;rounded=0;shadow=0;strokeWidth=1;" parent="Ev4vLjDtqOw1OBdRFHEw-1" vertex="1">
          <mxGeometry x="120" y="80" width="100" height="210" as="geometry" />
        </mxCell>
        <mxCell id="ibFIzqcE3AoIAyEGFBbN-1" value="" style="points=[];perimeter=orthogonalPerimeter;rounded=0;shadow=0;strokeWidth=1;" parent="ibFIzqcE3AoIAyEGFBbN-0" vertex="1">
          <mxGeometry x="45" y="70" width="10" height="100" as="geometry" />
        </mxCell>
        <mxCell id="ibFIzqcE3AoIAyEGFBbN-3" value="PrestoConnection" style="shape=umlLifeline;perimeter=lifelinePerimeter;container=1;collapsible=0;recursiveResize=0;rounded=0;shadow=0;strokeWidth=1;" parent="Ev4vLjDtqOw1OBdRFHEw-1" vertex="1">
          <mxGeometry x="250" y="80" width="100" height="370" as="geometry" />
        </mxCell>
        <mxCell id="ibFIzqcE3AoIAyEGFBbN-4" value="" style="points=[];perimeter=orthogonalPerimeter;rounded=0;shadow=0;strokeWidth=1;" parent="ibFIzqcE3AoIAyEGFBbN-3" vertex="1">
          <mxGeometry x="45" y="80" width="10" height="240" as="geometry" />
        </mxCell>
        <mxCell id="ibFIzqcE3AoIAyEGFBbN-23" value="createStatement" style="html=1;verticalAlign=bottom;endArrow=block;" parent="ibFIzqcE3AoIAyEGFBbN-3" target="ibFIzqcE3AoIAyEGFBbN-7" edge="1">
          <mxGeometry width="80" relative="1" as="geometry">
            <mxPoint x="60" y="110" as="sourcePoint" />
            <mxPoint x="140" y="110" as="targetPoint" />
          </mxGeometry>
        </mxCell>
        <mxCell id="uYWjskWXe7vb7zaiHt34-1" value="getResultSet" style="html=1;verticalAlign=bottom;endArrow=open;dashed=1;endSize=8;" parent="ibFIzqcE3AoIAyEGFBbN-3" target="uYWjskWXe7vb7zaiHt34-2" edge="1">
          <mxGeometry relative="1" as="geometry">
            <mxPoint x="170" y="420" as="sourcePoint" />
            <mxPoint x="90" y="420" as="targetPoint" />
          </mxGeometry>
        </mxCell>
        <mxCell id="ibFIzqcE3AoIAyEGFBbN-6" value="connect" style="verticalAlign=bottom;endArrow=block;shadow=0;strokeWidth=1;" parent="Ev4vLjDtqOw1OBdRFHEw-1" source="ibFIzqcE3AoIAyEGFBbN-1" edge="1">
          <mxGeometry relative="1" as="geometry">
            <mxPoint x="275" y="160" as="sourcePoint" />
            <mxPoint x="300" y="160" as="targetPoint" />
          </mxGeometry>
        </mxCell>
        <mxCell id="ibFIzqcE3AoIAyEGFBbN-7" value="PrestoStatement" style="shape=umlLifeline;perimeter=lifelinePerimeter;whiteSpace=wrap;html=1;container=1;collapsible=0;recursiveResize=0;outlineConnect=0;" parent="Ev4vLjDtqOw1OBdRFHEw-1" vertex="1">
          <mxGeometry x="380" y="80" width="110" height="490" as="geometry" />
        </mxCell>
        <mxCell id="ibFIzqcE3AoIAyEGFBbN-8" value="" style="html=1;points=[];perimeter=orthogonalPerimeter;" parent="ibFIzqcE3AoIAyEGFBbN-7" vertex="1">
          <mxGeometry x="50" y="90" width="10" height="160" as="geometry" />
        </mxCell>
        <mxCell id="uYWjskWXe7vb7zaiHt34-0" value="" style="html=1;points=[];perimeter=orthogonalPerimeter;" parent="ibFIzqcE3AoIAyEGFBbN-7" vertex="1">
          <mxGeometry x="50" y="400" width="10" height="50" as="geometry" />
        </mxCell>
        <mxCell id="ibFIzqcE3AoIAyEGFBbN-12" value="QueryExecutor" style="shape=umlLifeline;perimeter=lifelinePerimeter;whiteSpace=wrap;html=1;container=1;collapsible=0;recursiveResize=0;outlineConnect=0;" parent="Ev4vLjDtqOw1OBdRFHEw-1" vertex="1">
          <mxGeometry x="500" y="80" width="100" height="370" as="geometry" />
        </mxCell>
        <mxCell id="ibFIzqcE3AoIAyEGFBbN-13" value="" style="html=1;points=[];perimeter=orthogonalPerimeter;" parent="ibFIzqcE3AoIAyEGFBbN-12" vertex="1">
          <mxGeometry x="45" y="300" width="10" height="40" as="geometry" />
        </mxCell>
        <mxCell id="ibFIzqcE3AoIAyEGFBbN-14" value="newStatementClient" style="html=1;verticalAlign=bottom;endArrow=block;" parent="ibFIzqcE3AoIAyEGFBbN-12" edge="1">
          <mxGeometry x="0.1298" y="10" width="80" relative="1" as="geometry">
            <mxPoint x="55" y="299.58" as="sourcePoint" />
            <mxPoint x="176" y="300" as="targetPoint" />
            <Array as="points" />
            <mxPoint as="offset" />
          </mxGeometry>
        </mxCell>
        <mxCell id="ibFIzqcE3AoIAyEGFBbN-16" value="StatementClientV1" style="shape=umlLifeline;perimeter=lifelinePerimeter;whiteSpace=wrap;html=1;container=1;collapsible=0;recursiveResize=0;outlineConnect=0;" parent="Ev4vLjDtqOw1OBdRFHEw-1" vertex="1">
          <mxGeometry x="630" y="80" width="110" height="440" as="geometry" />
        </mxCell>
        <mxCell id="ibFIzqcE3AoIAyEGFBbN-17" value="" style="html=1;points=[];perimeter=orthogonalPerimeter;" parent="ibFIzqcE3AoIAyEGFBbN-16" vertex="1">
          <mxGeometry x="50" y="270" width="10" height="150" as="geometry" />
        </mxCell>
        <mxCell id="ibFIzqcE3AoIAyEGFBbN-18" value="&lt;span style=&quot;text-align: center&quot;&gt;执行execute，发送请求&lt;/span&gt;&lt;br style=&quot;text-align: center&quot;&gt;&lt;span style=&quot;text-align: center&quot;&gt;到presto coordinator&lt;/span&gt;" style="edgeStyle=orthogonalEdgeStyle;html=1;align=left;spacingLeft=2;endArrow=block;rounded=0;entryX=1;entryY=0;" parent="Ev4vLjDtqOw1OBdRFHEw-1" edge="1">
          <mxGeometry x="-0.7143" y="10" relative="1" as="geometry">
            <mxPoint x="690" y="430" as="sourcePoint" />
            <Array as="points">
              <mxPoint x="750" y="430" />
              <mxPoint x="750" y="450" />
            </Array>
            <mxPoint x="690" y="450" as="targetPoint" />
            <mxPoint as="offset" />
          </mxGeometry>
        </mxCell>
        <mxCell id="ibFIzqcE3AoIAyEGFBbN-19" value="processResponse" style="edgeStyle=orthogonalEdgeStyle;html=1;align=left;spacingLeft=2;endArrow=block;rounded=0;entryX=1;entryY=0;" parent="Ev4vLjDtqOw1OBdRFHEw-1" edge="1">
          <mxGeometry x="-0.7143" y="10" relative="1" as="geometry">
            <mxPoint x="690" y="470" as="sourcePoint" />
            <Array as="points">
              <mxPoint x="750" y="470" />
              <mxPoint x="750" y="490" />
            </Array>
            <mxPoint x="690" y="490" as="targetPoint" />
            <mxPoint as="offset" />
          </mxGeometry>
        </mxCell>
        <mxCell id="ibFIzqcE3AoIAyEGFBbN-22" value="buildQueryRequest" style="edgeStyle=orthogonalEdgeStyle;html=1;align=left;spacingLeft=2;endArrow=block;rounded=0;entryX=1;entryY=0;" parent="Ev4vLjDtqOw1OBdRFHEw-1" edge="1">
          <mxGeometry x="-0.7143" y="10" relative="1" as="geometry">
            <mxPoint x="690" y="380" as="sourcePoint" />
            <Array as="points">
              <mxPoint x="750" y="380" />
              <mxPoint x="750" y="400" />
            </Array>
            <mxPoint x="690" y="400.0000000000001" as="targetPoint" />
            <mxPoint as="offset" />
          </mxGeometry>
        </mxCell>
        <mxCell id="ibFIzqcE3AoIAyEGFBbN-25" value="executeQuery" style="edgeStyle=orthogonalEdgeStyle;html=1;align=left;spacingLeft=2;endArrow=block;rounded=0;entryX=1;entryY=0;" parent="Ev4vLjDtqOw1OBdRFHEw-1" edge="1">
          <mxGeometry x="-0.7143" y="10" relative="1" as="geometry">
            <mxPoint x="440" y="210" as="sourcePoint" />
            <Array as="points">
              <mxPoint x="500" y="210" />
              <mxPoint x="500" y="230" />
            </Array>
            <mxPoint x="440" y="230" as="targetPoint" />
            <mxPoint as="offset" />
          </mxGeometry>
        </mxCell>
        <mxCell id="ibFIzqcE3AoIAyEGFBbN-26" value="InternalExecute" style="edgeStyle=orthogonalEdgeStyle;html=1;align=left;spacingLeft=2;endArrow=block;rounded=0;entryX=1;entryY=0;" parent="Ev4vLjDtqOw1OBdRFHEw-1" edge="1">
          <mxGeometry x="-0.7143" y="10" relative="1" as="geometry">
            <mxPoint x="440" y="255" as="sourcePoint" />
            <Array as="points">
              <mxPoint x="500" y="255" />
              <mxPoint x="500" y="275" />
            </Array>
            <mxPoint x="440" y="275" as="targetPoint" />
            <mxPoint as="offset" />
          </mxGeometry>
        </mxCell>
        <mxCell id="ibFIzqcE3AoIAyEGFBbN-27" value="startQuery" style="edgeStyle=orthogonalEdgeStyle;html=1;align=left;spacingLeft=2;endArrow=block;rounded=0;" parent="Ev4vLjDtqOw1OBdRFHEw-1" edge="1">
          <mxGeometry x="0.1111" relative="1" as="geometry">
            <mxPoint x="440" y="330" as="sourcePoint" />
            <Array as="points">
              <mxPoint x="500" y="330" />
              <mxPoint x="500" y="350" />
            </Array>
            <mxPoint x="310" y="350" as="targetPoint" />
            <mxPoint as="offset" />
          </mxGeometry>
        </mxCell>
        <mxCell id="ibFIzqcE3AoIAyEGFBbN-28" value="startQuery" style="html=1;verticalAlign=bottom;endArrow=block;exitX=0.9;exitY=0.958;exitDx=0;exitDy=0;exitPerimeter=0;" parent="Ev4vLjDtqOw1OBdRFHEw-1" source="ibFIzqcE3AoIAyEGFBbN-4" edge="1">
          <mxGeometry width="80" relative="1" as="geometry">
            <mxPoint x="310" y="390" as="sourcePoint" />
            <mxPoint x="540" y="390" as="targetPoint" />
            <Array as="points">
              <mxPoint x="500" y="390" />
            </Array>
          </mxGeometry>
        </mxCell>
        <mxCell id="uYWjskWXe7vb7zaiHt34-2" value="应用程序" style="shape=umlLifeline;perimeter=lifelinePerimeter;whiteSpace=wrap;html=1;container=1;collapsible=0;recursiveResize=0;outlineConnect=0;" parent="Ev4vLjDtqOw1OBdRFHEw-1" vertex="1">
          <mxGeometry x="10" y="80" width="100" height="490" as="geometry" />
        </mxCell>
        <mxCell id="ibFIzqcE3AoIAyEGFBbN-2" value="注册驱动" style="verticalAlign=bottom;startArrow=oval;endArrow=block;startSize=8;shadow=0;strokeWidth=1;" parent="Ev4vLjDtqOw1OBdRFHEw-1" source="uYWjskWXe7vb7zaiHt34-2" target="ibFIzqcE3AoIAyEGFBbN-1" edge="1">
          <mxGeometry x="-0.0427" relative="1" as="geometry">
            <mxPoint x="70" y="150" as="sourcePoint" />
            <Array as="points">
              <mxPoint x="110" y="160" />
            </Array>
            <mxPoint x="1" as="offset" />
          </mxGeometry>
        </mxCell>
      </root>
    </mxGraphModel>
  </diagram>
  <diagram id="qigbF81UrmvKBrIuU96-" name="Presto Sql Parser源码解析">
    <mxGraphModel dx="1297" dy="742" grid="1" gridSize="10" guides="1" tooltips="1" connect="1" arrows="1" fold="1" page="1" pageScale="1" pageWidth="1654" pageHeight="2336" math="0" shadow="0">
      <root>
        <mxCell id="bpe3oXjyeL9hJWnd8iY4-0" />
        <mxCell id="bpe3oXjyeL9hJWnd8iY4-1" parent="bpe3oXjyeL9hJWnd8iY4-0" />
        <mxCell id="U4gzJqfj36lcujSUkhDv-12" value="DispatchManager" style="shape=umlLifeline;perimeter=lifelinePerimeter;whiteSpace=wrap;html=1;container=1;collapsible=0;recursiveResize=0;outlineConnect=0;" vertex="1" parent="bpe3oXjyeL9hJWnd8iY4-1">
          <mxGeometry x="43" y="66" width="100" height="1164" as="geometry" />
        </mxCell>
        <mxCell id="U4gzJqfj36lcujSUkhDv-14" value="" style="html=1;points=[];perimeter=orthogonalPerimeter;" vertex="1" parent="U4gzJqfj36lcujSUkhDv-12">
          <mxGeometry x="45" y="64" width="10" height="156" as="geometry" />
        </mxCell>
        <mxCell id="U4gzJqfj36lcujSUkhDv-66" value="LocalDispatchQueryFactory" style="shape=umlLifeline;perimeter=lifelinePerimeter;whiteSpace=wrap;html=1;container=1;collapsible=0;recursiveResize=0;outlineConnect=0;" vertex="1" parent="bpe3oXjyeL9hJWnd8iY4-1">
          <mxGeometry x="153" y="66" width="150" height="1244" as="geometry" />
        </mxCell>
        <mxCell id="U4gzJqfj36lcujSUkhDv-68" value="" style="html=1;points=[];perimeter=orthogonalPerimeter;" vertex="1" parent="U4gzJqfj36lcujSUkhDv-66">
          <mxGeometry x="70" y="74" width="10" height="56" as="geometry" />
        </mxCell>
        <mxCell id="U4gzJqfj36lcujSUkhDv-70" value="SqlQueryExecution" style="shape=umlLifeline;perimeter=lifelinePerimeter;whiteSpace=wrap;html=1;container=1;collapsible=0;recursiveResize=0;outlineConnect=0;" vertex="1" parent="bpe3oXjyeL9hJWnd8iY4-1">
          <mxGeometry x="313" y="66" width="120" height="1384" as="geometry" />
        </mxCell>
        <mxCell id="U4gzJqfj36lcujSUkhDv-71" value="" style="html=1;points=[];perimeter=orthogonalPerimeter;" vertex="1" parent="U4gzJqfj36lcujSUkhDv-70">
          <mxGeometry x="55" y="114" width="10" height="126" as="geometry" />
        </mxCell>
        <mxCell id="U4gzJqfj36lcujSUkhDv-72" value="获取ExecutionPolicy(AllAtOncd还是Phased)，&lt;br&gt;开始构造SqlQueryExecution对象" style="edgeStyle=orthogonalEdgeStyle;html=1;align=left;spacingLeft=2;endArrow=block;rounded=0;entryX=1;entryY=0;" edge="1" parent="U4gzJqfj36lcujSUkhDv-70">
          <mxGeometry relative="1" as="geometry">
            <mxPoint x="67" y="126" as="sourcePoint" />
            <Array as="points">
              <mxPoint x="105" y="126" />
              <mxPoint x="105" y="146" />
            </Array>
            <mxPoint x="72" y="146" as="targetPoint" />
          </mxGeometry>
        </mxCell>
        <mxCell id="U4gzJqfj36lcujSUkhDv-74" value="Analyzer" style="shape=umlLifeline;perimeter=lifelinePerimeter;whiteSpace=wrap;html=1;container=1;collapsible=0;recursiveResize=0;outlineConnect=0;" vertex="1" parent="bpe3oXjyeL9hJWnd8iY4-1">
          <mxGeometry x="443" y="66" width="100" height="1474" as="geometry" />
        </mxCell>
        <mxCell id="U4gzJqfj36lcujSUkhDv-75" value="" style="html=1;points=[];perimeter=orthogonalPerimeter;" vertex="1" parent="U4gzJqfj36lcujSUkhDv-74">
          <mxGeometry x="45" y="200" width="10" height="60" as="geometry" />
        </mxCell>
        <mxCell id="U4gzJqfj36lcujSUkhDv-79" value="StatementAnalyzer" style="shape=umlLifeline;perimeter=lifelinePerimeter;whiteSpace=wrap;html=1;container=1;collapsible=0;recursiveResize=0;outlineConnect=0;" vertex="1" parent="bpe3oXjyeL9hJWnd8iY4-1">
          <mxGeometry x="550" y="66" width="110" height="1474" as="geometry" />
        </mxCell>
        <mxCell id="U4gzJqfj36lcujSUkhDv-80" value="" style="html=1;points=[];perimeter=orthogonalPerimeter;" vertex="1" parent="U4gzJqfj36lcujSUkhDv-79">
          <mxGeometry x="50" y="234" width="10" height="46" as="geometry" />
        </mxCell>
        <mxCell id="U4gzJqfj36lcujSUkhDv-17" value="createDispatchQuery" style="html=1;verticalAlign=bottom;endArrow=block;" edge="1" parent="bpe3oXjyeL9hJWnd8iY4-1">
          <mxGeometry width="80" relative="1" as="geometry">
            <mxPoint x="98" y="170" as="sourcePoint" />
            <mxPoint x="223" y="170" as="targetPoint" />
          </mxGeometry>
        </mxCell>
        <mxCell id="U4gzJqfj36lcujSUkhDv-83" value="开始analyze query，analyze" style="edgeStyle=orthogonalEdgeStyle;html=1;align=left;spacingLeft=2;endArrow=block;rounded=0;" edge="1" parent="bpe3oXjyeL9hJWnd8iY4-1">
          <mxGeometry relative="1" as="geometry">
            <mxPoint x="379.99999999999955" y="229" as="sourcePoint" />
            <Array as="points">
              <mxPoint x="410" y="229" />
            </Array>
            <mxPoint x="380" y="249" as="targetPoint" />
          </mxGeometry>
        </mxCell>
        <mxCell id="U4gzJqfj36lcujSUkhDv-84" value="重写Statement" style="edgeStyle=orthogonalEdgeStyle;html=1;align=left;spacingLeft=2;endArrow=block;rounded=0;" edge="1" parent="bpe3oXjyeL9hJWnd8iY4-1">
          <mxGeometry relative="1" as="geometry">
            <mxPoint x="500.99999999999955" y="274" as="sourcePoint" />
            <Array as="points">
              <mxPoint x="531" y="274" />
            </Array>
            <mxPoint x="501" y="294" as="targetPoint" />
          </mxGeometry>
        </mxCell>
        <mxCell id="U4gzJqfj36lcujSUkhDv-69" value="createQueryExecution" style="html=1;verticalAlign=bottom;endArrow=block;" edge="1" parent="bpe3oXjyeL9hJWnd8iY4-1">
          <mxGeometry width="80" relative="1" as="geometry">
            <mxPoint x="233" y="180" as="sourcePoint" />
            <mxPoint x="373" y="180" as="targetPoint" />
          </mxGeometry>
        </mxCell>
        <mxCell id="U4gzJqfj36lcujSUkhDv-73" value="语法分析analyze" style="html=1;verticalAlign=bottom;endArrow=block;" edge="1" parent="bpe3oXjyeL9hJWnd8iY4-1">
          <mxGeometry width="80" relative="1" as="geometry">
            <mxPoint x="382" y="276" as="sourcePoint" />
            <mxPoint x="482" y="276" as="targetPoint" />
          </mxGeometry>
        </mxCell>
        <mxCell id="U4gzJqfj36lcujSUkhDv-76" value="analyze" style="html=1;verticalAlign=bottom;endArrow=block;entryX=-0.2;entryY=0.304;entryDx=0;entryDy=0;entryPerimeter=0;" edge="1" parent="bpe3oXjyeL9hJWnd8iY4-1" target="U4gzJqfj36lcujSUkhDv-80">
          <mxGeometry width="80" relative="1" as="geometry">
            <mxPoint x="500" y="314" as="sourcePoint" />
            <mxPoint x="594" y="314" as="targetPoint" />
          </mxGeometry>
        </mxCell>
      </root>
    </mxGraphModel>
  </diagram>
  <diagram id="HzMFsABH2pNt-7x4GWXx" name="Presto Coodinator接收请求后的执行流程">
    <mxGraphModel dx="1297" dy="742" grid="1" gridSize="10" guides="1" tooltips="1" connect="1" arrows="1" fold="1" page="1" pageScale="1" pageWidth="3300" pageHeight="4681" math="0" shadow="0">
      <root>
        <mxCell id="iZ9cqmsqKvjf0PTGyu4p-0" />
        <mxCell id="iZ9cqmsqKvjf0PTGyu4p-1" parent="iZ9cqmsqKvjf0PTGyu4p-0" />
        <mxCell id="5QlWgTITlBRqZUc3jHJU-0" value="Cli/JDBC" style="shape=umlLifeline;perimeter=lifelinePerimeter;whiteSpace=wrap;html=1;container=1;collapsible=0;recursiveResize=0;outlineConnect=0;" parent="iZ9cqmsqKvjf0PTGyu4p-1" vertex="1">
          <mxGeometry x="101" y="66" width="112" height="414" as="geometry" />
        </mxCell>
        <mxCell id="MoAvPwaarEwKwqN-6X5g-0" value="" style="html=1;points=[];perimeter=orthogonalPerimeter;" parent="5QlWgTITlBRqZUc3jHJU-0" vertex="1">
          <mxGeometry x="50" y="60" width="10" height="320" as="geometry" />
        </mxCell>
        <mxCell id="MoAvPwaarEwKwqN-6X5g-1" value="QueuedStatementResource" style="shape=umlLifeline;perimeter=lifelinePerimeter;whiteSpace=wrap;html=1;container=1;collapsible=0;recursiveResize=0;outlineConnect=0;" parent="iZ9cqmsqKvjf0PTGyu4p-1" vertex="1">
          <mxGeometry x="231" y="66" width="162" height="394" as="geometry" />
        </mxCell>
        <mxCell id="GF16hsofqe1c2pGsukpy-28" value="&lt;span style=&quot;text-align: left&quot;&gt;createQuery&lt;/span&gt;" style="html=1;verticalAlign=bottom;endArrow=block;entryX=-0.5;entryY=0.048;entryDx=0;entryDy=0;entryPerimeter=0;" parent="MoAvPwaarEwKwqN-6X5g-1" target="GF16hsofqe1c2pGsukpy-29" edge="1">
          <mxGeometry width="80" relative="1" as="geometry">
            <mxPoint x="80" y="281" as="sourcePoint" />
            <mxPoint x="290" y="281" as="targetPoint" />
          </mxGeometry>
        </mxCell>
        <mxCell id="GF16hsofqe1c2pGsukpy-2" value="postStatement" style="edgeStyle=orthogonalEdgeStyle;html=1;align=left;spacingLeft=2;endArrow=block;rounded=0;entryX=1.1;entryY=0.738;entryDx=0;entryDy=0;entryPerimeter=0;" parent="iZ9cqmsqKvjf0PTGyu4p-1" source="GF16hsofqe1c2pGsukpy-4" target="GF16hsofqe1c2pGsukpy-4" edge="1">
          <mxGeometry relative="1" as="geometry">
            <mxPoint x="302.5" y="176" as="sourcePoint" />
            <Array as="points">
              <mxPoint x="371" y="176" />
              <mxPoint x="371" y="204" />
            </Array>
            <mxPoint x="318" y="206" as="targetPoint" />
          </mxGeometry>
        </mxCell>
        <mxCell id="GF16hsofqe1c2pGsukpy-4" value="" style="html=1;points=[];perimeter=orthogonalPerimeter;" parent="iZ9cqmsqKvjf0PTGyu4p-1" vertex="1">
          <mxGeometry x="305.5" y="146" width="13" height="79" as="geometry" />
        </mxCell>
        <mxCell id="GF16hsofqe1c2pGsukpy-5" value="Post请求/v1/statment" style="html=1;verticalAlign=bottom;endArrow=block;entryX=0;entryY=0;" parent="iZ9cqmsqKvjf0PTGyu4p-1" target="GF16hsofqe1c2pGsukpy-4" edge="1">
          <mxGeometry relative="1" as="geometry">
            <mxPoint x="161" y="146" as="sourcePoint" />
          </mxGeometry>
        </mxCell>
        <mxCell id="GF16hsofqe1c2pGsukpy-6" value="返回nextUri" style="html=1;verticalAlign=bottom;endArrow=open;dashed=1;endSize=8;exitX=0;exitY=0.95;" parent="iZ9cqmsqKvjf0PTGyu4p-1" source="GF16hsofqe1c2pGsukpy-4" edge="1">
          <mxGeometry relative="1" as="geometry">
            <mxPoint x="160" y="222" as="targetPoint" />
          </mxGeometry>
        </mxCell>
        <mxCell id="GF16hsofqe1c2pGsukpy-16" value="不断请求nextUri" style="html=1;verticalAlign=bottom;endArrow=block;entryX=0;entryY=0;" parent="iZ9cqmsqKvjf0PTGyu4p-1" edge="1">
          <mxGeometry relative="1" as="geometry">
            <mxPoint x="161" y="250" as="sourcePoint" />
            <mxPoint x="301" y="250.0000000000001" as="targetPoint" />
          </mxGeometry>
        </mxCell>
        <mxCell id="GF16hsofqe1c2pGsukpy-17" value="return Status" style="html=1;verticalAlign=bottom;endArrow=open;dashed=1;endSize=8;exitX=0;exitY=0.95;" parent="iZ9cqmsqKvjf0PTGyu4p-1" edge="1">
          <mxGeometry relative="1" as="geometry">
            <mxPoint x="161" y="326" as="targetPoint" />
            <mxPoint x="301" y="326" as="sourcePoint" />
          </mxGeometry>
        </mxCell>
        <mxCell id="GF16hsofqe1c2pGsukpy-20" value="" style="html=1;points=[];perimeter=orthogonalPerimeter;" parent="iZ9cqmsqKvjf0PTGyu4p-1" vertex="1">
          <mxGeometry x="305.5" y="250" width="13" height="190" as="geometry" />
        </mxCell>
        <mxCell id="GF16hsofqe1c2pGsukpy-24" value="getStatus处理netUri请求" style="edgeStyle=orthogonalEdgeStyle;html=1;align=left;spacingLeft=2;endArrow=block;rounded=0;entryX=1;entryY=0.604;entryDx=0;entryDy=0;entryPerimeter=0;exitX=1;exitY=0.047;exitDx=0;exitDy=0;exitPerimeter=0;" parent="iZ9cqmsqKvjf0PTGyu4p-1" source="GF16hsofqe1c2pGsukpy-20" edge="1">
          <mxGeometry relative="1" as="geometry">
            <mxPoint x="328" y="259" as="sourcePoint" />
            <Array as="points">
              <mxPoint x="369" y="259" />
              <mxPoint x="369" y="287" />
            </Array>
            <mxPoint x="318.5" y="287.1599999999999" as="targetPoint" />
          </mxGeometry>
        </mxCell>
        <mxCell id="GF16hsofqe1c2pGsukpy-26" value="DispatchManager" style="shape=umlLifeline;perimeter=lifelinePerimeter;whiteSpace=wrap;html=1;container=1;collapsible=0;recursiveResize=0;outlineConnect=0;" parent="iZ9cqmsqKvjf0PTGyu4p-1" vertex="1">
          <mxGeometry x="440" y="66" width="100" height="1164" as="geometry" />
        </mxCell>
        <mxCell id="GF16hsofqe1c2pGsukpy-29" value="" style="html=1;points=[];perimeter=orthogonalPerimeter;" parent="GF16hsofqe1c2pGsukpy-26" vertex="1">
          <mxGeometry x="45" y="270" width="10" height="230" as="geometry" />
        </mxCell>
        <mxCell id="GF16hsofqe1c2pGsukpy-117" value="" style="html=1;points=[];perimeter=orthogonalPerimeter;" parent="GF16hsofqe1c2pGsukpy-26" vertex="1">
          <mxGeometry x="45" y="974" width="10" height="156" as="geometry" />
        </mxCell>
        <mxCell id="GF16hsofqe1c2pGsukpy-119" value="选择对应的resourceGroup, selectGroup" style="html=1;verticalAlign=bottom;endArrow=block;" parent="GF16hsofqe1c2pGsukpy-26" edge="1">
          <mxGeometry width="80" relative="1" as="geometry">
            <mxPoint x="60" y="1014" as="sourcePoint" />
            <mxPoint x="1090" y="1014" as="targetPoint" />
          </mxGeometry>
        </mxCell>
        <mxCell id="GF16hsofqe1c2pGsukpy-136" value="合并用户session参数和system默认的session，不覆盖用户的参数，newSessionWithDefaultProperties" style="html=1;verticalAlign=bottom;endArrow=block;entryX=-0.3;entryY=0.808;entryDx=0;entryDy=0;entryPerimeter=0;" parent="GF16hsofqe1c2pGsukpy-26" target="GF16hsofqe1c2pGsukpy-137" edge="1">
          <mxGeometry width="80" relative="1" as="geometry">
            <mxPoint x="60" y="1044" as="sourcePoint" />
            <mxPoint x="1230" y="1044" as="targetPoint" />
          </mxGeometry>
        </mxCell>
        <mxCell id="GF16hsofqe1c2pGsukpy-146" value="createDispatchQuery" style="html=1;verticalAlign=bottom;endArrow=block;" parent="GF16hsofqe1c2pGsukpy-26" edge="1">
          <mxGeometry width="80" relative="1" as="geometry">
            <mxPoint x="60" y="1084" as="sourcePoint" />
            <mxPoint x="1390" y="1084" as="targetPoint" />
          </mxGeometry>
        </mxCell>
        <mxCell id="GF16hsofqe1c2pGsukpy-30" value="waitForDispatched" style="edgeStyle=orthogonalEdgeStyle;html=1;align=left;spacingLeft=2;endArrow=block;rounded=0;entryX=1;entryY=0.604;entryDx=0;entryDy=0;entryPerimeter=0;" parent="iZ9cqmsqKvjf0PTGyu4p-1" edge="1">
          <mxGeometry relative="1" as="geometry">
            <mxPoint x="318" y="300" as="sourcePoint" />
            <Array as="points">
              <mxPoint x="368" y="300" />
              <mxPoint x="368" y="328" />
            </Array>
            <mxPoint x="318" y="328.31999999999994" as="targetPoint" />
          </mxGeometry>
        </mxCell>
        <mxCell id="GF16hsofqe1c2pGsukpy-31" value="createQueryInternal" style="edgeStyle=orthogonalEdgeStyle;html=1;align=left;spacingLeft=2;endArrow=block;rounded=0;entryX=1;entryY=0.604;entryDx=0;entryDy=0;entryPerimeter=0;" parent="iZ9cqmsqKvjf0PTGyu4p-1" edge="1">
          <mxGeometry relative="1" as="geometry">
            <mxPoint x="497" y="358" as="sourcePoint" />
            <Array as="points">
              <mxPoint x="547" y="358" />
              <mxPoint x="547" y="386" />
            </Array>
            <mxPoint x="497" y="386.31999999999994" as="targetPoint" />
          </mxGeometry>
        </mxCell>
        <mxCell id="GF16hsofqe1c2pGsukpy-32" value="SessionSupplier" style="shape=umlLifeline;perimeter=lifelinePerimeter;whiteSpace=wrap;html=1;container=1;collapsible=0;recursiveResize=0;outlineConnect=0;" parent="iZ9cqmsqKvjf0PTGyu4p-1" vertex="1">
          <mxGeometry x="620" y="66" width="100" height="1174" as="geometry" />
        </mxCell>
        <mxCell id="GF16hsofqe1c2pGsukpy-37" value="" style="html=1;points=[];perimeter=orthogonalPerimeter;" parent="GF16hsofqe1c2pGsukpy-32" vertex="1">
          <mxGeometry x="45" y="344" width="10" height="36" as="geometry" />
        </mxCell>
        <mxCell id="GF16hsofqe1c2pGsukpy-39" value="return session" style="html=1;verticalAlign=bottom;endArrow=open;dashed=1;endSize=8;exitX=0;exitY=0.95;" parent="GF16hsofqe1c2pGsukpy-32" source="GF16hsofqe1c2pGsukpy-37" edge="1">
          <mxGeometry relative="1" as="geometry">
            <mxPoint x="-120" y="378" as="targetPoint" />
          </mxGeometry>
        </mxCell>
        <mxCell id="GF16hsofqe1c2pGsukpy-47" value="prepareQuery" style="html=1;verticalAlign=bottom;endArrow=block;entryX=0;entryY=0;" parent="GF16hsofqe1c2pGsukpy-32" target="GF16hsofqe1c2pGsukpy-46" edge="1">
          <mxGeometry relative="1" as="geometry">
            <mxPoint x="-120" y="404" as="sourcePoint" />
          </mxGeometry>
        </mxCell>
        <mxCell id="GF16hsofqe1c2pGsukpy-48" value="return preparedQuery" style="html=1;verticalAlign=bottom;endArrow=open;dashed=1;endSize=8;exitX=0;exitY=1;exitDx=0;exitDy=0;exitPerimeter=0;" parent="GF16hsofqe1c2pGsukpy-32" source="GF16hsofqe1c2pGsukpy-46" edge="1">
          <mxGeometry relative="1" as="geometry">
            <mxPoint x="-120" y="482" as="targetPoint" />
            <mxPoint x="185" y="484" as="sourcePoint" />
          </mxGeometry>
        </mxCell>
        <mxCell id="GF16hsofqe1c2pGsukpy-116" value="return PreparedQuery" style="html=1;verticalAlign=bottom;endArrow=open;dashed=1;endSize=8;" parent="GF16hsofqe1c2pGsukpy-32" edge="1">
          <mxGeometry relative="1" as="geometry">
            <mxPoint x="150" y="984" as="sourcePoint" />
            <mxPoint x="-120" y="984" as="targetPoint" />
          </mxGeometry>
        </mxCell>
        <mxCell id="GF16hsofqe1c2pGsukpy-38" value="createSession" style="html=1;verticalAlign=bottom;endArrow=block;entryX=0;entryY=0;" parent="iZ9cqmsqKvjf0PTGyu4p-1" target="GF16hsofqe1c2pGsukpy-37" edge="1">
          <mxGeometry relative="1" as="geometry">
            <mxPoint x="500" y="410" as="sourcePoint" />
          </mxGeometry>
        </mxCell>
        <mxCell id="GF16hsofqe1c2pGsukpy-49" value="QueryPreparer" style="shape=umlLifeline;perimeter=lifelinePerimeter;whiteSpace=wrap;html=1;container=1;collapsible=0;recursiveResize=0;outlineConnect=0;" parent="iZ9cqmsqKvjf0PTGyu4p-1" vertex="1">
          <mxGeometry x="730" y="66" width="100" height="1174" as="geometry" />
        </mxCell>
        <mxCell id="GF16hsofqe1c2pGsukpy-57" value="createStatement" style="html=1;verticalAlign=bottom;endArrow=block;" parent="GF16hsofqe1c2pGsukpy-49" edge="1">
          <mxGeometry width="80" relative="1" as="geometry">
            <mxPoint x="60" y="414" as="sourcePoint" />
            <mxPoint x="172" y="414" as="targetPoint" />
          </mxGeometry>
        </mxCell>
        <mxCell id="GF16hsofqe1c2pGsukpy-111" value="" style="html=1;points=[];perimeter=orthogonalPerimeter;" parent="GF16hsofqe1c2pGsukpy-49" vertex="1">
          <mxGeometry x="45" y="914" width="10" height="80" as="geometry" />
        </mxCell>
        <mxCell id="GF16hsofqe1c2pGsukpy-46" value="" style="html=1;points=[];perimeter=orthogonalPerimeter;" parent="iZ9cqmsqKvjf0PTGyu4p-1" vertex="1">
          <mxGeometry x="775" y="470" width="10" height="80" as="geometry" />
        </mxCell>
        <mxCell id="GF16hsofqe1c2pGsukpy-51" value="SqlParser" style="shape=umlLifeline;perimeter=lifelinePerimeter;whiteSpace=wrap;html=1;container=1;collapsible=0;recursiveResize=0;outlineConnect=0;" parent="iZ9cqmsqKvjf0PTGyu4p-1" vertex="1">
          <mxGeometry x="860" y="66" width="100" height="1174" as="geometry" />
        </mxCell>
        <mxCell id="GF16hsofqe1c2pGsukpy-68" value="" style="html=1;points=[];perimeter=orthogonalPerimeter;" parent="GF16hsofqe1c2pGsukpy-51" vertex="1">
          <mxGeometry x="45" y="400" width="10" height="510" as="geometry" />
        </mxCell>
        <mxCell id="GF16hsofqe1c2pGsukpy-97" value="removeErrorListeners" style="html=1;verticalAlign=bottom;endArrow=block;entryX=0;entryY=0.074;entryDx=0;entryDy=0;entryPerimeter=0;" parent="GF16hsofqe1c2pGsukpy-51" target="GF16hsofqe1c2pGsukpy-93" edge="1">
          <mxGeometry width="80" relative="1" as="geometry">
            <mxPoint x="60" y="684" as="sourcePoint" />
            <mxPoint x="140" y="684" as="targetPoint" />
          </mxGeometry>
        </mxCell>
        <mxCell id="GF16hsofqe1c2pGsukpy-98" value="addErrorListener" style="html=1;verticalAlign=bottom;endArrow=block;entryX=0;entryY=0.63;entryDx=0;entryDy=0;entryPerimeter=0;" parent="GF16hsofqe1c2pGsukpy-51" target="GF16hsofqe1c2pGsukpy-93" edge="1">
          <mxGeometry width="80" relative="1" as="geometry">
            <mxPoint x="60" y="714" as="sourcePoint" />
            <mxPoint x="140" y="714" as="targetPoint" />
          </mxGeometry>
        </mxCell>
        <mxCell id="GF16hsofqe1c2pGsukpy-101" value="addParseListeners" style="html=1;verticalAlign=bottom;endArrow=block;" parent="GF16hsofqe1c2pGsukpy-51" edge="1">
          <mxGeometry width="80" relative="1" as="geometry">
            <mxPoint x="60" y="644" as="sourcePoint" />
            <mxPoint x="430" y="644" as="targetPoint" />
          </mxGeometry>
        </mxCell>
        <mxCell id="GF16hsofqe1c2pGsukpy-102" value="addErrorListener" style="html=1;verticalAlign=bottom;endArrow=block;" parent="GF16hsofqe1c2pGsukpy-51" edge="1">
          <mxGeometry width="80" relative="1" as="geometry">
            <mxPoint x="60" y="754" as="sourcePoint" />
            <mxPoint x="430" y="754" as="targetPoint" />
          </mxGeometry>
        </mxCell>
        <mxCell id="GF16hsofqe1c2pGsukpy-104" value="将parser的Interpreter的PredictionMode设置为SSL，&lt;br&gt;尝试进行解析(失败则换成LL解析)" style="html=1;verticalAlign=bottom;endArrow=block;" parent="GF16hsofqe1c2pGsukpy-51" edge="1">
          <mxGeometry width="80" relative="1" as="geometry">
            <mxPoint x="60" y="794" as="sourcePoint" />
            <mxPoint x="430" y="794" as="targetPoint" />
          </mxGeometry>
        </mxCell>
        <mxCell id="GF16hsofqe1c2pGsukpy-105" value="开始解析，singleStatment" style="html=1;verticalAlign=bottom;endArrow=block;" parent="GF16hsofqe1c2pGsukpy-51" edge="1">
          <mxGeometry width="80" relative="1" as="geometry">
            <mxPoint x="60" y="824" as="sourcePoint" />
            <mxPoint x="430" y="824" as="targetPoint" />
          </mxGeometry>
        </mxCell>
        <mxCell id="GF16hsofqe1c2pGsukpy-107" value="开始遍历Ast树，visit" style="html=1;verticalAlign=bottom;endArrow=block;entryX=-0.4;entryY=0.082;entryDx=0;entryDy=0;entryPerimeter=0;" parent="GF16hsofqe1c2pGsukpy-51" target="GF16hsofqe1c2pGsukpy-108" edge="1">
          <mxGeometry width="80" relative="1" as="geometry">
            <mxPoint x="60" y="895" as="sourcePoint" />
            <mxPoint x="570" y="895" as="targetPoint" />
          </mxGeometry>
        </mxCell>
        <mxCell id="GF16hsofqe1c2pGsukpy-72" value="invokeParser" style="edgeStyle=orthogonalEdgeStyle;html=1;align=left;spacingLeft=2;endArrow=block;rounded=0;entryX=1;entryY=0.604;entryDx=0;entryDy=0;entryPerimeter=0;" parent="iZ9cqmsqKvjf0PTGyu4p-1" edge="1">
          <mxGeometry relative="1" as="geometry">
            <mxPoint x="916" y="484" as="sourcePoint" />
            <Array as="points">
              <mxPoint x="966" y="484" />
              <mxPoint x="966" y="512" />
            </Array>
            <mxPoint x="916" y="512.3199999999999" as="targetPoint" />
          </mxGeometry>
        </mxCell>
        <mxCell id="GF16hsofqe1c2pGsukpy-74" value="SqlBaseLexer" style="shape=umlLifeline;perimeter=lifelinePerimeter;whiteSpace=wrap;html=1;container=1;collapsible=0;recursiveResize=0;outlineConnect=0;" parent="iZ9cqmsqKvjf0PTGyu4p-1" vertex="1">
          <mxGeometry x="1010" y="66" width="100" height="1174" as="geometry" />
        </mxCell>
        <mxCell id="GF16hsofqe1c2pGsukpy-79" value="" style="html=1;points=[];perimeter=orthogonalPerimeter;" parent="GF16hsofqe1c2pGsukpy-74" vertex="1">
          <mxGeometry x="45" y="474" width="10" height="36" as="geometry" />
        </mxCell>
        <mxCell id="GF16hsofqe1c2pGsukpy-80" value="词法解析" style="html=1;verticalAlign=bottom;endArrow=block;entryX=0;entryY=0;" parent="GF16hsofqe1c2pGsukpy-74" target="GF16hsofqe1c2pGsukpy-79" edge="1">
          <mxGeometry relative="1" as="geometry">
            <mxPoint x="-90" y="474" as="sourcePoint" />
          </mxGeometry>
        </mxCell>
        <mxCell id="GF16hsofqe1c2pGsukpy-81" value="return SqlBaseLexer" style="html=1;verticalAlign=bottom;endArrow=open;dashed=1;endSize=8;exitX=0;exitY=0.95;" parent="GF16hsofqe1c2pGsukpy-74" source="GF16hsofqe1c2pGsukpy-79" edge="1">
          <mxGeometry relative="1" as="geometry">
            <mxPoint x="-90" y="508" as="targetPoint" />
          </mxGeometry>
        </mxCell>
        <mxCell id="GF16hsofqe1c2pGsukpy-93" value="" style="html=1;points=[];perimeter=orthogonalPerimeter;" parent="GF16hsofqe1c2pGsukpy-74" vertex="1">
          <mxGeometry x="45" y="680" width="10" height="54" as="geometry" />
        </mxCell>
        <mxCell id="GF16hsofqe1c2pGsukpy-75" value="CommonTokenStream" style="shape=umlLifeline;perimeter=lifelinePerimeter;whiteSpace=wrap;html=1;container=1;collapsible=0;recursiveResize=0;outlineConnect=0;" parent="iZ9cqmsqKvjf0PTGyu4p-1" vertex="1">
          <mxGeometry x="1120" y="66" width="120" height="1174" as="geometry" />
        </mxCell>
        <mxCell id="GF16hsofqe1c2pGsukpy-82" value="" style="html=1;points=[];perimeter=orthogonalPerimeter;" parent="GF16hsofqe1c2pGsukpy-75" vertex="1">
          <mxGeometry x="57" y="534" width="10" height="36" as="geometry" />
        </mxCell>
        <mxCell id="GF16hsofqe1c2pGsukpy-83" value="根据词法解析结果生成token" style="html=1;verticalAlign=bottom;endArrow=block;entryX=0;entryY=0;" parent="GF16hsofqe1c2pGsukpy-75" target="GF16hsofqe1c2pGsukpy-82" edge="1">
          <mxGeometry relative="1" as="geometry">
            <mxPoint x="-200" y="534" as="sourcePoint" />
          </mxGeometry>
        </mxCell>
        <mxCell id="GF16hsofqe1c2pGsukpy-106" value="return 解析后的语法树 ParserRuleContext" style="html=1;verticalAlign=bottom;endArrow=open;dashed=1;endSize=8;" parent="GF16hsofqe1c2pGsukpy-75" edge="1">
          <mxGeometry relative="1" as="geometry">
            <mxPoint x="170" y="854" as="sourcePoint" />
            <mxPoint x="-200" y="854" as="targetPoint" />
          </mxGeometry>
        </mxCell>
        <mxCell id="GF16hsofqe1c2pGsukpy-84" value="return CommonTokenStream" style="html=1;verticalAlign=bottom;endArrow=open;dashed=1;endSize=8;exitX=0;exitY=0.95;" parent="iZ9cqmsqKvjf0PTGyu4p-1" source="GF16hsofqe1c2pGsukpy-82" edge="1">
          <mxGeometry relative="1" as="geometry">
            <mxPoint x="920" y="634" as="targetPoint" />
          </mxGeometry>
        </mxCell>
        <mxCell id="GF16hsofqe1c2pGsukpy-85" value="SqlBaseParser" style="shape=umlLifeline;perimeter=lifelinePerimeter;whiteSpace=wrap;html=1;container=1;collapsible=0;recursiveResize=0;outlineConnect=0;" parent="iZ9cqmsqKvjf0PTGyu4p-1" vertex="1">
          <mxGeometry x="1250" y="66" width="100" height="1174" as="geometry" />
        </mxCell>
        <mxCell id="GF16hsofqe1c2pGsukpy-86" value="" style="html=1;points=[];perimeter=orthogonalPerimeter;" parent="GF16hsofqe1c2pGsukpy-85" vertex="1">
          <mxGeometry x="45" y="594" width="10" height="286" as="geometry" />
        </mxCell>
        <mxCell id="GF16hsofqe1c2pGsukpy-88" value="return SqlBaseParser" style="html=1;verticalAlign=bottom;endArrow=open;dashed=1;endSize=8;exitX=0;exitY=0.95;" parent="GF16hsofqe1c2pGsukpy-85" edge="1">
          <mxGeometry relative="1" as="geometry">
            <mxPoint x="-330" y="618" as="targetPoint" />
            <mxPoint x="45" y="618" as="sourcePoint" />
          </mxGeometry>
        </mxCell>
        <mxCell id="GF16hsofqe1c2pGsukpy-87" value="根据tokenStream构造SqlBaseParser" style="html=1;verticalAlign=bottom;endArrow=block;entryX=0;entryY=0;" parent="iZ9cqmsqKvjf0PTGyu4p-1" target="GF16hsofqe1c2pGsukpy-86" edge="1">
          <mxGeometry relative="1" as="geometry">
            <mxPoint x="920" y="660" as="sourcePoint" />
          </mxGeometry>
        </mxCell>
        <mxCell id="GF16hsofqe1c2pGsukpy-103" value="AstBuilder" style="shape=umlLifeline;perimeter=lifelinePerimeter;whiteSpace=wrap;html=1;container=1;collapsible=0;recursiveResize=0;outlineConnect=0;" parent="iZ9cqmsqKvjf0PTGyu4p-1" vertex="1">
          <mxGeometry x="1360" y="66" width="100" height="1174" as="geometry" />
        </mxCell>
        <mxCell id="GF16hsofqe1c2pGsukpy-108" value="" style="html=1;points=[];perimeter=orthogonalPerimeter;" parent="GF16hsofqe1c2pGsukpy-103" vertex="1">
          <mxGeometry x="45" y="891" width="10" height="49" as="geometry" />
        </mxCell>
        <mxCell id="GF16hsofqe1c2pGsukpy-109" value="return 遍历后得到的Node(Statementd的父类)" style="html=1;verticalAlign=bottom;endArrow=open;dashed=1;endSize=8;" parent="iZ9cqmsqKvjf0PTGyu4p-1" edge="1">
          <mxGeometry relative="1" as="geometry">
            <mxPoint x="1400" y="990" as="sourcePoint" />
            <mxPoint x="790" y="990" as="targetPoint" />
          </mxGeometry>
        </mxCell>
        <mxCell id="GF16hsofqe1c2pGsukpy-115" value="prepareQuery，判断Statement是否为Execute或者Explain，validate对应的参数" style="edgeStyle=orthogonalEdgeStyle;html=1;align=left;spacingLeft=2;endArrow=block;rounded=0;entryX=1.3;entryY=0.625;entryDx=0;entryDy=0;entryPerimeter=0;" parent="iZ9cqmsqKvjf0PTGyu4p-1" target="GF16hsofqe1c2pGsukpy-111" edge="1">
          <mxGeometry relative="1" as="geometry">
            <mxPoint x="785" y="1010" as="sourcePoint" />
            <Array as="points">
              <mxPoint x="815" y="1010" />
              <mxPoint x="815" y="1030" />
            </Array>
            <mxPoint x="790" y="1030" as="targetPoint" />
          </mxGeometry>
        </mxCell>
        <mxCell id="GF16hsofqe1c2pGsukpy-118" value="ResourceGroupManager" style="shape=umlLifeline;perimeter=lifelinePerimeter;whiteSpace=wrap;html=1;container=1;collapsible=0;recursiveResize=0;outlineConnect=0;" parent="iZ9cqmsqKvjf0PTGyu4p-1" vertex="1">
          <mxGeometry x="1470" y="66" width="140" height="1174" as="geometry" />
        </mxCell>
        <mxCell id="GF16hsofqe1c2pGsukpy-120" value="" style="html=1;points=[];perimeter=orthogonalPerimeter;" parent="GF16hsofqe1c2pGsukpy-118" vertex="1">
          <mxGeometry x="65" y="1004" width="10" height="36" as="geometry" />
        </mxCell>
        <mxCell id="GF16hsofqe1c2pGsukpy-132" value="" style="shape=umlLifeline;participant=umlActor;perimeter=lifelinePerimeter;whiteSpace=wrap;html=1;container=1;collapsible=0;recursiveResize=0;verticalAlign=top;spacingTop=36;outlineConnect=0;" parent="iZ9cqmsqKvjf0PTGyu4p-1" vertex="1">
          <mxGeometry x="20" y="66" width="20" height="1144" as="geometry" />
        </mxCell>
        <mxCell id="GF16hsofqe1c2pGsukpy-134" value="" style="html=1;points=[];perimeter=orthogonalPerimeter;" parent="GF16hsofqe1c2pGsukpy-132" vertex="1">
          <mxGeometry x="5" y="64" width="10" height="996" as="geometry" />
        </mxCell>
        <mxCell id="GF16hsofqe1c2pGsukpy-133" value="Submit Query" style="html=1;verticalAlign=bottom;endArrow=block;" parent="iZ9cqmsqKvjf0PTGyu4p-1" edge="1">
          <mxGeometry width="80" relative="1" as="geometry">
            <mxPoint x="40" y="139" as="sourcePoint" />
            <mxPoint x="150" y="139" as="targetPoint" />
          </mxGeometry>
        </mxCell>
        <mxCell id="GF16hsofqe1c2pGsukpy-135" value="SessionPropertyDefaults" style="shape=umlLifeline;perimeter=lifelinePerimeter;whiteSpace=wrap;html=1;container=1;collapsible=0;recursiveResize=0;outlineConnect=0;" parent="iZ9cqmsqKvjf0PTGyu4p-1" vertex="1">
          <mxGeometry x="1620" y="66" width="130" height="1174" as="geometry" />
        </mxCell>
        <mxCell id="GF16hsofqe1c2pGsukpy-137" value="" style="html=1;points=[];perimeter=orthogonalPerimeter;" parent="GF16hsofqe1c2pGsukpy-135" vertex="1">
          <mxGeometry x="60" y="1024" width="10" height="26" as="geometry" />
        </mxCell>
        <mxCell id="GF16hsofqe1c2pGsukpy-139" value="LocalDispatchQueryFactory" style="shape=umlLifeline;perimeter=lifelinePerimeter;whiteSpace=wrap;html=1;container=1;collapsible=0;recursiveResize=0;outlineConnect=0;" parent="iZ9cqmsqKvjf0PTGyu4p-1" vertex="1">
          <mxGeometry x="1755" y="66" width="170" height="1440" as="geometry" />
        </mxCell>
        <mxCell id="GF16hsofqe1c2pGsukpy-144" value="LocalDispatchQueryFactory" style="rounded=0;whiteSpace=wrap;html=1;" parent="GF16hsofqe1c2pGsukpy-139" vertex="1">
          <mxGeometry x="20" y="1390" width="150" height="50" as="geometry" />
        </mxCell>
        <mxCell id="GF16hsofqe1c2pGsukpy-145" value="" style="html=1;points=[];perimeter=orthogonalPerimeter;" parent="GF16hsofqe1c2pGsukpy-139" vertex="1">
          <mxGeometry x="80" y="1064" width="10" height="56" as="geometry" />
        </mxCell>
        <mxCell id="GF16hsofqe1c2pGsukpy-148" value="createQueryExecution" style="html=1;verticalAlign=bottom;endArrow=block;" parent="GF16hsofqe1c2pGsukpy-139" edge="1">
          <mxGeometry width="80" relative="1" as="geometry">
            <mxPoint x="95" y="1104" as="sourcePoint" />
            <mxPoint x="235" y="1104" as="targetPoint" />
          </mxGeometry>
        </mxCell>
        <mxCell id="GF16hsofqe1c2pGsukpy-147" value="SqlQueryExecution" style="shape=umlLifeline;perimeter=lifelinePerimeter;whiteSpace=wrap;html=1;container=1;collapsible=0;recursiveResize=0;outlineConnect=0;" parent="iZ9cqmsqKvjf0PTGyu4p-1" vertex="1">
          <mxGeometry x="1930" y="66" width="120" height="1384" as="geometry" />
        </mxCell>
        <mxCell id="GF16hsofqe1c2pGsukpy-149" value="" style="html=1;points=[];perimeter=orthogonalPerimeter;" parent="GF16hsofqe1c2pGsukpy-147" vertex="1">
          <mxGeometry x="55" y="1094" width="10" height="126" as="geometry" />
        </mxCell>
        <mxCell id="GF16hsofqe1c2pGsukpy-151" value="获取ExecutionPolicy(AllAtOncd还是Phased)，&lt;br&gt;开始构造SqlQueryExecution对象" style="edgeStyle=orthogonalEdgeStyle;html=1;align=left;spacingLeft=2;endArrow=block;rounded=0;entryX=1;entryY=0;" parent="GF16hsofqe1c2pGsukpy-147" edge="1">
          <mxGeometry relative="1" as="geometry">
            <mxPoint x="67" y="1130" as="sourcePoint" />
            <Array as="points">
              <mxPoint x="97" y="1130" />
            </Array>
            <mxPoint x="72" y="1150" as="targetPoint" />
          </mxGeometry>
        </mxCell>
        <mxCell id="GF16hsofqe1c2pGsukpy-154" value="语法分析analyze" style="html=1;verticalAlign=bottom;endArrow=block;" parent="GF16hsofqe1c2pGsukpy-147" edge="1">
          <mxGeometry width="80" relative="1" as="geometry">
            <mxPoint x="70" y="1214" as="sourcePoint" />
            <mxPoint x="170" y="1214" as="targetPoint" />
          </mxGeometry>
        </mxCell>
        <mxCell id="GF16hsofqe1c2pGsukpy-152" value="Analyzer" style="shape=umlLifeline;perimeter=lifelinePerimeter;whiteSpace=wrap;html=1;container=1;collapsible=0;recursiveResize=0;outlineConnect=0;" parent="iZ9cqmsqKvjf0PTGyu4p-1" vertex="1">
          <mxGeometry x="2060" y="66" width="100" height="1474" as="geometry" />
        </mxCell>
        <mxCell id="GF16hsofqe1c2pGsukpy-155" value="" style="html=1;points=[];perimeter=orthogonalPerimeter;" parent="GF16hsofqe1c2pGsukpy-152" vertex="1">
          <mxGeometry x="45" y="1204" width="10" height="66" as="geometry" />
        </mxCell>
        <mxCell id="GF16hsofqe1c2pGsukpy-158" value="analyze" style="html=1;verticalAlign=bottom;endArrow=block;entryX=-0.6;entryY=0.207;entryDx=0;entryDy=0;entryPerimeter=0;" parent="GF16hsofqe1c2pGsukpy-152" edge="1">
          <mxGeometry width="80" relative="1" as="geometry">
            <mxPoint x="61" y="1264" as="sourcePoint" />
            <mxPoint x="155" y="1263.522" as="targetPoint" />
          </mxGeometry>
        </mxCell>
        <mxCell id="GF16hsofqe1c2pGsukpy-153" value="开始analyze query，analyze" style="edgeStyle=orthogonalEdgeStyle;html=1;align=left;spacingLeft=2;endArrow=block;rounded=0;" parent="iZ9cqmsqKvjf0PTGyu4p-1" edge="1">
          <mxGeometry relative="1" as="geometry">
            <mxPoint x="1999.9999999999995" y="1231" as="sourcePoint" />
            <Array as="points">
              <mxPoint x="2030" y="1231" />
            </Array>
            <mxPoint x="2000" y="1251" as="targetPoint" />
          </mxGeometry>
        </mxCell>
        <mxCell id="GF16hsofqe1c2pGsukpy-156" value="重写Statement" style="edgeStyle=orthogonalEdgeStyle;html=1;align=left;spacingLeft=2;endArrow=block;rounded=0;" parent="iZ9cqmsqKvjf0PTGyu4p-1" edge="1">
          <mxGeometry relative="1" as="geometry">
            <mxPoint x="2114.9999999999995" y="1282" as="sourcePoint" />
            <Array as="points">
              <mxPoint x="2145" y="1282" />
            </Array>
            <mxPoint x="2115" y="1302" as="targetPoint" />
          </mxGeometry>
        </mxCell>
        <mxCell id="GF16hsofqe1c2pGsukpy-157" value="StatementAnalyzer" style="shape=umlLifeline;perimeter=lifelinePerimeter;whiteSpace=wrap;html=1;container=1;collapsible=0;recursiveResize=0;outlineConnect=0;" parent="iZ9cqmsqKvjf0PTGyu4p-1" vertex="1">
          <mxGeometry x="2170" y="66" width="110" height="1474" as="geometry" />
        </mxCell>
        <mxCell id="GF16hsofqe1c2pGsukpy-159" value="" style="html=1;points=[];perimeter=orthogonalPerimeter;" parent="GF16hsofqe1c2pGsukpy-157" vertex="1">
          <mxGeometry x="50" y="1254" width="10" height="46" as="geometry" />
        </mxCell>
      </root>
    </mxGraphModel>
  </diagram>
</mxfile>
